<svg width="51" height="51" viewBox="0 0 51 51" fill="none" xmlns="http://www.w3.org/2000/svg">
<path d="M25.5698 50.5404C39.1929 50.5404 50.4722 39.2611 50.4722 25.6381C50.4722 12.0394 39.1685 0.735718 25.5454 0.735718C11.9468 0.735718 0.66748 12.0394 0.66748 25.6381C0.66748 39.2611 11.9712 50.5404 25.5698 50.5404ZM16.8052 36.4779C15.6821 36.4779 14.7544 35.5502 14.7544 34.4027C14.7544 33.8412 14.9741 33.3529 15.3647 32.9867L22.6646 25.6625L15.3647 18.3383C14.9741 17.9965 14.7544 17.4838 14.7544 16.9222C14.7544 15.7992 15.6821 14.8959 16.8052 14.8959C17.3911 14.8959 17.855 15.1156 18.2212 15.5062L25.5454 22.806L32.9185 15.4818C33.3335 15.0424 33.7974 14.847 34.3345 14.847C35.4819 14.847 36.3853 15.7748 36.3853 16.8978C36.3853 17.4594 36.2144 17.9232 35.7749 18.3138L28.4507 25.6625L35.7505 32.9379C36.1411 33.3285 36.3608 33.8168 36.3608 34.4027C36.3608 35.5502 35.4575 36.4779 34.3101 36.4779C33.7241 36.4779 33.2114 36.2338 32.8452 35.8676L25.5454 28.5433L18.27 35.8676C17.9038 36.2582 17.3911 36.4779 16.8052 36.4779Z" fill="#F8123B"/>
</svg>
